<mxfile host="app.diagrams.net" modified="2023-09-27T18:10:44.466Z" agent="Mozilla/5.0 (Windows NT 10.0; Win64; x64) AppleWebKit/537.36 (KHTML, like Gecko) Chrome/117.0.0.0 Safari/537.36" etag="LG7RWdlPKy1fdgwaeYYU" version="21.8.2" type="device">
  <diagram id="C5RBs43oDa-KdzZeNtuy" name="Page-1">
    <mxGraphModel dx="1050" dy="566" grid="1" gridSize="10" guides="1" tooltips="1" connect="1" arrows="1" fold="1" page="1" pageScale="1" pageWidth="827" pageHeight="1169" math="0" shadow="0">
      <root>
        <mxCell id="WIyWlLk6GJQsqaUBKTNV-0" />
        <mxCell id="WIyWlLk6GJQsqaUBKTNV-1" parent="WIyWlLk6GJQsqaUBKTNV-0" />
        <mxCell id="S9dXNi7pcLElVYRPqdEr-0" value="&lt;em style=&quot;box-sizing: border-box; color: rgb(44, 45, 48); font-family: Roboto, &amp;quot;San Francisco&amp;quot;, &amp;quot;Helvetica Neue&amp;quot;, Helvetica, Arial; font-size: 15px; text-align: start; background-color: rgb(255, 255, 255);&quot;&gt;Задача&lt;/em&gt;: Написать программу, &lt;br&gt;которая из имеющегося массива строк формирует новый массив из строк,&lt;br&gt;&amp;nbsp;длина которых меньше, либо равна 3 символам.&lt;br&gt;" style="text;html=1;align=center;verticalAlign=middle;resizable=0;points=[];autosize=1;strokeColor=none;fillColor=none;" vertex="1" parent="WIyWlLk6GJQsqaUBKTNV-1">
          <mxGeometry x="330" y="35" width="440" height="60" as="geometry" />
        </mxCell>
        <mxCell id="S9dXNi7pcLElVYRPqdEr-1" value="Начало" style="ellipse;whiteSpace=wrap;html=1;fillColor=#f5f5f5;fontColor=#333333;strokeColor=#666666;" vertex="1" parent="WIyWlLk6GJQsqaUBKTNV-1">
          <mxGeometry x="200" y="95" width="120" height="80" as="geometry" />
        </mxCell>
        <mxCell id="S9dXNi7pcLElVYRPqdEr-3" value="" style="endArrow=classic;html=1;rounded=0;exitX=0.5;exitY=1;exitDx=0;exitDy=0;entryX=0.5;entryY=0;entryDx=0;entryDy=0;" edge="1" parent="WIyWlLk6GJQsqaUBKTNV-1" source="S9dXNi7pcLElVYRPqdEr-1" target="S9dXNi7pcLElVYRPqdEr-4">
          <mxGeometry width="50" height="50" relative="1" as="geometry">
            <mxPoint x="510" y="340" as="sourcePoint" />
            <mxPoint x="260" y="220" as="targetPoint" />
          </mxGeometry>
        </mxCell>
        <mxCell id="S9dXNi7pcLElVYRPqdEr-10" value="" style="edgeStyle=orthogonalEdgeStyle;rounded=0;orthogonalLoop=1;jettySize=auto;html=1;exitX=0.5;exitY=1;exitDx=0;exitDy=0;" edge="1" parent="WIyWlLk6GJQsqaUBKTNV-1" source="S9dXNi7pcLElVYRPqdEr-26" target="S9dXNi7pcLElVYRPqdEr-25">
          <mxGeometry relative="1" as="geometry">
            <mxPoint x="350" y="360" as="sourcePoint" />
            <mxPoint x="260.0999999999999" y="600.0740740740739" as="targetPoint" />
          </mxGeometry>
        </mxCell>
        <mxCell id="S9dXNi7pcLElVYRPqdEr-24" value="" style="edgeStyle=orthogonalEdgeStyle;rounded=0;orthogonalLoop=1;jettySize=auto;html=1;" edge="1" parent="WIyWlLk6GJQsqaUBKTNV-1" source="S9dXNi7pcLElVYRPqdEr-4" target="S9dXNi7pcLElVYRPqdEr-23">
          <mxGeometry relative="1" as="geometry" />
        </mxCell>
        <mxCell id="S9dXNi7pcLElVYRPqdEr-4" value="m = Количество элементов массива" style="shape=parallelogram;perimeter=parallelogramPerimeter;whiteSpace=wrap;html=1;fixedSize=1;fillColor=#dae8fc;strokeColor=#6c8ebf;" vertex="1" parent="WIyWlLk6GJQsqaUBKTNV-1">
          <mxGeometry x="141.25" y="210" width="237.5" height="60" as="geometry" />
        </mxCell>
        <mxCell id="S9dXNi7pcLElVYRPqdEr-18" value="" style="edgeStyle=orthogonalEdgeStyle;rounded=0;orthogonalLoop=1;jettySize=auto;html=1;entryX=0.5;entryY=0;entryDx=0;entryDy=0;exitX=0.5;exitY=1;exitDx=0;exitDy=0;" edge="1" parent="WIyWlLk6GJQsqaUBKTNV-1" source="S9dXNi7pcLElVYRPqdEr-23" target="S9dXNi7pcLElVYRPqdEr-19">
          <mxGeometry relative="1" as="geometry">
            <mxPoint x="260" y="420" as="targetPoint" />
          </mxGeometry>
        </mxCell>
        <mxCell id="S9dXNi7pcLElVYRPqdEr-20" value="Yes" style="edgeLabel;html=1;align=center;verticalAlign=middle;resizable=0;points=[];" vertex="1" connectable="0" parent="S9dXNi7pcLElVYRPqdEr-18">
          <mxGeometry x="-0.38" relative="1" as="geometry">
            <mxPoint as="offset" />
          </mxGeometry>
        </mxCell>
        <mxCell id="S9dXNi7pcLElVYRPqdEr-27" value="" style="edgeStyle=orthogonalEdgeStyle;rounded=0;orthogonalLoop=1;jettySize=auto;html=1;" edge="1" parent="WIyWlLk6GJQsqaUBKTNV-1" source="S9dXNi7pcLElVYRPqdEr-19" target="S9dXNi7pcLElVYRPqdEr-26">
          <mxGeometry relative="1" as="geometry" />
        </mxCell>
        <mxCell id="S9dXNi7pcLElVYRPqdEr-19" value="Элемент массива (Э(m)) = &lt;br&gt;Вводится значение элементов &lt;br&gt;массива" style="shape=parallelogram;perimeter=parallelogramPerimeter;whiteSpace=wrap;html=1;fixedSize=1;fillColor=#dae8fc;strokeColor=#6c8ebf;" vertex="1" parent="WIyWlLk6GJQsqaUBKTNV-1">
          <mxGeometry x="141.25" y="490" width="237.5" height="60" as="geometry" />
        </mxCell>
        <mxCell id="S9dXNi7pcLElVYRPqdEr-21" value="" style="endArrow=classic;html=1;rounded=0;exitX=1;exitY=0.5;exitDx=0;exitDy=0;" edge="1" parent="WIyWlLk6GJQsqaUBKTNV-1" source="S9dXNi7pcLElVYRPqdEr-23">
          <mxGeometry width="50" height="50" relative="1" as="geometry">
            <mxPoint x="510" y="450" as="sourcePoint" />
            <mxPoint x="260" y="300" as="targetPoint" />
            <Array as="points">
              <mxPoint x="400" y="380" />
              <mxPoint x="400" y="340" />
              <mxPoint x="400" y="300" />
              <mxPoint x="320" y="300" />
            </Array>
          </mxGeometry>
        </mxCell>
        <mxCell id="S9dXNi7pcLElVYRPqdEr-22" value="No" style="edgeLabel;html=1;align=center;verticalAlign=middle;resizable=0;points=[];" vertex="1" connectable="0" parent="S9dXNi7pcLElVYRPqdEr-21">
          <mxGeometry x="-0.3917" y="-2" relative="1" as="geometry">
            <mxPoint as="offset" />
          </mxGeometry>
        </mxCell>
        <mxCell id="S9dXNi7pcLElVYRPqdEr-23" value="i = 0; i &amp;lt; m; i+=1" style="rhombus;whiteSpace=wrap;html=1;fillColor=#fff2cc;strokeColor=#d6b656;" vertex="1" parent="WIyWlLk6GJQsqaUBKTNV-1">
          <mxGeometry x="170" y="320" width="180" height="120" as="geometry" />
        </mxCell>
        <mxCell id="S9dXNi7pcLElVYRPqdEr-29" value="" style="edgeStyle=orthogonalEdgeStyle;rounded=0;orthogonalLoop=1;jettySize=auto;html=1;entryX=0.5;entryY=0;entryDx=0;entryDy=0;" edge="1" parent="WIyWlLk6GJQsqaUBKTNV-1" source="S9dXNi7pcLElVYRPqdEr-25" target="S9dXNi7pcLElVYRPqdEr-41">
          <mxGeometry relative="1" as="geometry">
            <mxPoint x="260" y="910" as="targetPoint" />
          </mxGeometry>
        </mxCell>
        <mxCell id="S9dXNi7pcLElVYRPqdEr-31" value="Yes" style="edgeLabel;html=1;align=center;verticalAlign=middle;resizable=0;points=[];" vertex="1" connectable="0" parent="S9dXNi7pcLElVYRPqdEr-29">
          <mxGeometry x="-0.1733" relative="1" as="geometry">
            <mxPoint as="offset" />
          </mxGeometry>
        </mxCell>
        <mxCell id="S9dXNi7pcLElVYRPqdEr-25" value="i = 0; i &amp;lt; m; i+=1&lt;br&gt;Э(m) &amp;lt;= 3" style="rhombus;whiteSpace=wrap;html=1;fillColor=#fff2cc;strokeColor=#d6b656;" vertex="1" parent="WIyWlLk6GJQsqaUBKTNV-1">
          <mxGeometry x="170" y="710" width="180" height="120" as="geometry" />
        </mxCell>
        <mxCell id="S9dXNi7pcLElVYRPqdEr-26" value="n = 0;" style="whiteSpace=wrap;html=1;fillColor=#d5e8d4;strokeColor=#82b366;" vertex="1" parent="WIyWlLk6GJQsqaUBKTNV-1">
          <mxGeometry x="175" y="600" width="170" height="70" as="geometry" />
        </mxCell>
        <mxCell id="S9dXNi7pcLElVYRPqdEr-32" value="" style="endArrow=classic;html=1;rounded=0;exitX=1;exitY=0.5;exitDx=0;exitDy=0;" edge="1" parent="WIyWlLk6GJQsqaUBKTNV-1" source="S9dXNi7pcLElVYRPqdEr-25">
          <mxGeometry width="50" height="50" relative="1" as="geometry">
            <mxPoint x="510" y="850" as="sourcePoint" />
            <mxPoint x="260" y="690" as="targetPoint" />
            <Array as="points">
              <mxPoint x="400" y="770" />
              <mxPoint x="400" y="690" />
            </Array>
          </mxGeometry>
        </mxCell>
        <mxCell id="S9dXNi7pcLElVYRPqdEr-33" value="No" style="edgeLabel;html=1;align=center;verticalAlign=middle;resizable=0;points=[];" vertex="1" connectable="0" parent="S9dXNi7pcLElVYRPqdEr-32">
          <mxGeometry x="-0.3414" y="2" relative="1" as="geometry">
            <mxPoint as="offset" />
          </mxGeometry>
        </mxCell>
        <mxCell id="S9dXNi7pcLElVYRPqdEr-41" value="n = n + 1;" style="whiteSpace=wrap;html=1;fillColor=#d5e8d4;strokeColor=#82b366;" vertex="1" parent="WIyWlLk6GJQsqaUBKTNV-1">
          <mxGeometry x="175" y="870" width="170" height="70" as="geometry" />
        </mxCell>
        <mxCell id="S9dXNi7pcLElVYRPqdEr-42" value="" style="edgeStyle=orthogonalEdgeStyle;rounded=0;orthogonalLoop=1;jettySize=auto;html=1;exitX=0.5;exitY=1;exitDx=0;exitDy=0;entryX=0.5;entryY=0;entryDx=0;entryDy=0;" edge="1" parent="WIyWlLk6GJQsqaUBKTNV-1" source="S9dXNi7pcLElVYRPqdEr-41" target="S9dXNi7pcLElVYRPqdEr-43">
          <mxGeometry relative="1" as="geometry">
            <mxPoint x="270" y="560" as="sourcePoint" />
            <mxPoint x="260" y="980" as="targetPoint" />
          </mxGeometry>
        </mxCell>
        <mxCell id="S9dXNi7pcLElVYRPqdEr-43" value="rez = [n];&lt;br&gt;j = 0;" style="whiteSpace=wrap;html=1;fillColor=#d5e8d4;strokeColor=#82b366;" vertex="1" parent="WIyWlLk6GJQsqaUBKTNV-1">
          <mxGeometry x="175" y="980" width="170" height="70" as="geometry" />
        </mxCell>
        <mxCell id="S9dXNi7pcLElVYRPqdEr-46" value="print(rez)&amp;nbsp;" style="shape=document;whiteSpace=wrap;html=1;boundedLbl=1;fillColor=#f8cecc;strokeColor=#b85450;" vertex="1" parent="WIyWlLk6GJQsqaUBKTNV-1">
          <mxGeometry x="660" y="750" width="120" height="80" as="geometry" />
        </mxCell>
        <mxCell id="S9dXNi7pcLElVYRPqdEr-47" value="Завершение" style="ellipse;whiteSpace=wrap;html=1;fillColor=#f5f5f5;fontColor=#333333;strokeColor=#666666;" vertex="1" parent="WIyWlLk6GJQsqaUBKTNV-1">
          <mxGeometry x="660" y="630" width="120" height="80" as="geometry" />
        </mxCell>
        <mxCell id="S9dXNi7pcLElVYRPqdEr-48" value="i = 0; i &amp;lt; m; i+=1&lt;br&gt;Э(rez) &amp;lt;= 3" style="rhombus;whiteSpace=wrap;html=1;fillColor=#fff2cc;strokeColor=#d6b656;" vertex="1" parent="WIyWlLk6GJQsqaUBKTNV-1">
          <mxGeometry x="430" y="955" width="180" height="120" as="geometry" />
        </mxCell>
        <mxCell id="S9dXNi7pcLElVYRPqdEr-49" value="" style="edgeStyle=orthogonalEdgeStyle;rounded=0;orthogonalLoop=1;jettySize=auto;html=1;exitX=1;exitY=0.5;exitDx=0;exitDy=0;entryX=0;entryY=0.5;entryDx=0;entryDy=0;" edge="1" parent="WIyWlLk6GJQsqaUBKTNV-1" source="S9dXNi7pcLElVYRPqdEr-43" target="S9dXNi7pcLElVYRPqdEr-48">
          <mxGeometry relative="1" as="geometry">
            <mxPoint x="270" y="950" as="sourcePoint" />
            <mxPoint x="270" y="990" as="targetPoint" />
          </mxGeometry>
        </mxCell>
        <mxCell id="S9dXNi7pcLElVYRPqdEr-50" value="" style="endArrow=classic;html=1;rounded=0;exitX=0.5;exitY=0;exitDx=0;exitDy=0;" edge="1" parent="WIyWlLk6GJQsqaUBKTNV-1" source="S9dXNi7pcLElVYRPqdEr-48">
          <mxGeometry width="50" height="50" relative="1" as="geometry">
            <mxPoint x="510" y="950" as="sourcePoint" />
            <mxPoint x="380" y="1015" as="targetPoint" />
            <Array as="points">
              <mxPoint x="380" y="955" />
            </Array>
          </mxGeometry>
        </mxCell>
        <mxCell id="S9dXNi7pcLElVYRPqdEr-51" value="No" style="edgeLabel;html=1;align=center;verticalAlign=middle;resizable=0;points=[];" vertex="1" connectable="0" parent="S9dXNi7pcLElVYRPqdEr-50">
          <mxGeometry x="-0.3414" y="2" relative="1" as="geometry">
            <mxPoint as="offset" />
          </mxGeometry>
        </mxCell>
        <mxCell id="S9dXNi7pcLElVYRPqdEr-52" value="" style="edgeStyle=orthogonalEdgeStyle;rounded=0;orthogonalLoop=1;jettySize=auto;html=1;exitX=1;exitY=0.5;exitDx=0;exitDy=0;entryX=0;entryY=0.5;entryDx=0;entryDy=0;" edge="1" parent="WIyWlLk6GJQsqaUBKTNV-1" source="S9dXNi7pcLElVYRPqdEr-48" target="S9dXNi7pcLElVYRPqdEr-55">
          <mxGeometry relative="1" as="geometry">
            <mxPoint x="270" y="840" as="sourcePoint" />
            <mxPoint x="680" y="1015" as="targetPoint" />
          </mxGeometry>
        </mxCell>
        <mxCell id="S9dXNi7pcLElVYRPqdEr-53" value="Yes" style="edgeLabel;html=1;align=center;verticalAlign=middle;resizable=0;points=[];" vertex="1" connectable="0" parent="S9dXNi7pcLElVYRPqdEr-52">
          <mxGeometry x="-0.1733" relative="1" as="geometry">
            <mxPoint as="offset" />
          </mxGeometry>
        </mxCell>
        <mxCell id="S9dXNi7pcLElVYRPqdEr-54" value="" style="edgeStyle=orthogonalEdgeStyle;rounded=0;orthogonalLoop=1;jettySize=auto;html=1;exitX=0.5;exitY=0;exitDx=0;exitDy=0;entryX=0.5;entryY=1;entryDx=0;entryDy=0;" edge="1" parent="WIyWlLk6GJQsqaUBKTNV-1" source="S9dXNi7pcLElVYRPqdEr-46" target="S9dXNi7pcLElVYRPqdEr-47">
          <mxGeometry relative="1" as="geometry">
            <mxPoint x="270" y="950" as="sourcePoint" />
            <mxPoint x="270" y="990" as="targetPoint" />
          </mxGeometry>
        </mxCell>
        <mxCell id="S9dXNi7pcLElVYRPqdEr-58" value="" style="edgeStyle=orthogonalEdgeStyle;rounded=0;orthogonalLoop=1;jettySize=auto;html=1;" edge="1" parent="WIyWlLk6GJQsqaUBKTNV-1" source="S9dXNi7pcLElVYRPqdEr-55" target="S9dXNi7pcLElVYRPqdEr-57">
          <mxGeometry relative="1" as="geometry" />
        </mxCell>
        <mxCell id="S9dXNi7pcLElVYRPqdEr-55" value="j = j + 1;" style="whiteSpace=wrap;html=1;fillColor=#d5e8d4;strokeColor=#82b366;" vertex="1" parent="WIyWlLk6GJQsqaUBKTNV-1">
          <mxGeometry x="660" y="985" width="120" height="60" as="geometry" />
        </mxCell>
        <mxCell id="S9dXNi7pcLElVYRPqdEr-59" value="" style="edgeStyle=orthogonalEdgeStyle;rounded=0;orthogonalLoop=1;jettySize=auto;html=1;entryX=0.503;entryY=0.84;entryDx=0;entryDy=0;entryPerimeter=0;" edge="1" parent="WIyWlLk6GJQsqaUBKTNV-1" source="S9dXNi7pcLElVYRPqdEr-57" target="S9dXNi7pcLElVYRPqdEr-46">
          <mxGeometry relative="1" as="geometry" />
        </mxCell>
        <mxCell id="S9dXNi7pcLElVYRPqdEr-57" value="rez" style="whiteSpace=wrap;html=1;fillColor=#d5e8d4;strokeColor=#82b366;" vertex="1" parent="WIyWlLk6GJQsqaUBKTNV-1">
          <mxGeometry x="660" y="870" width="120" height="60" as="geometry" />
        </mxCell>
      </root>
    </mxGraphModel>
  </diagram>
</mxfile>
